
<svg
   width="312.67957mm"
   height="411.62213mm"
   viewBox="0 0 312.67957 411.62213"
   version="1.1"
   id="svg5"
   xml:space="preserve"
   inkscape:export-filename="bitmap.svg"
   inkscape:export-xdpi="96"
   inkscape:export-ydpi="96"
   xmlns:inkscape="http://www.inkscape.org/namespaces/inkscape"
   xmlns:sodipodi="http://sodipodi.sourceforge.net/DTD/sodipodi-0.dtd"
   xmlns="http://www.w3.org/2000/svg"
   xmlns:svg="http://www.w3.org/2000/svg"><sodipodi:namedview
     id="namedview7"
     pagecolor="#ffffff"
     bordercolor="#000000"
     borderopacity="0.25"
     inkscape:showpageshadow="2"
     inkscape:pageopacity="0.0"
     inkscape:pagecheckerboard="0"
     inkscape:deskcolor="#d1d1d1"
     inkscape:document-units="mm"
     showgrid="false" /><defs
     id="defs2" /><g
     inkscape:label="Layer 1"
     inkscape:groupmode="layer"
     id="layer1"
     transform="translate(199.03271,51.212883)"><path
       style="currentColor"
       d="m -147.1018,360.24495 c -1.55011,-0.20899 -6.64207,-1.13413 -8.44053,-1.53352 -5.02426,-1.11575 -10.87283,-3.73327 -15.33698,-6.86406 -3.32489,-2.3318 -3.68418,-2.62906 -6.73361,-5.57133 -4.07935,-3.936 -7.08498,-8.27207 -9.44514,-13.62604 -0.67356,-1.52797 -1.3295,-3.01625 -1.45764,-3.30729 -1.50054,-3.40808 -2.88921,-11.65292 -2.89664,-17.19792 -0.004,-3.07837 0.78391,-9.85277 1.46928,-12.63084 2.08159,-8.43748 6.16647,-17.1455 10.61799,-22.63518 0.6241,-0.76965 1.13473,-1.49135 1.13473,-1.60377 0,-0.1124 0.20836,-0.43519 0.46302,-0.71729 0.25466,-0.2821 0.98623,-1.16776 1.62572,-1.96813 1.523,-1.90616 7.29199,-7.56039 9.21427,-9.03097 0.83071,-0.63553 1.70161,-1.34247 1.93534,-1.57099 0.98193,-0.96009 7.52964,-5.14874 12.29394,-7.86458 1.56413,-0.89162 7.00138,-3.49388 7.30021,-3.49388 0.1419,0 0.81959,-0.28159 1.50598,-0.62576 1.69054,-0.8477 5.0696,-2.04494 9.05318,-3.20762 1.81901,-0.53092 3.78354,-1.12533 4.36563,-1.32091 2.50973,-0.84336 12.83347,-2.63805 17.49642,-3.04162 1.72759,-0.14952 3.88038,-0.33809 4.78397,-0.41902 2.96993,-0.26604 13.112872,-0.33415 16.216482,-0.10888 1.673489,0.12144 4.114271,0.29342 5.423958,0.38214 3.150685,0.21341 6.00845,0.62457 12.964583,1.86536 2.75463,0.49136 9.217634,2.08243 10.657893,2.62377 0.541073,0.20336 1.817212,0.61997 2.835857,0.92575 1.018646,0.30581 2.685521,0.86474 3.704167,1.24209 1.018646,0.37735 2.268802,0.84053 2.778125,1.02925 2.939071,1.08916 6.857868,2.81615 9.477904,4.17687 1.647587,0.85567 3.073294,1.47807 3.168253,1.38311 0.193543,-0.19354 0.154702,-262.0668497 -0.03889,-262.2604506 -0.199311,-0.1993106 -4.193249,3.4289497 -5.780749,5.2514526 -1.650233,1.89455687 -3.916098,5.0754888 -3.916098,5.4976289 0,0.1538684 -0.105172,0.2797624 -0.233733,0.2797624 -0.128535,0 -0.30525,0.2083594 -0.392695,0.4630209 -0.08745,0.2546614 -0.457173,0.9392708 -0.82161,1.5213541 -0.679292,1.0849478 -1.148689,2.0277191 -1.87714,3.7703127 -0.228124,0.545703 -0.516228,1.230312 -0.640239,1.521354 -1.477142,3.466677 -2.945156,8.941337 -3.724724,13.890625 -0.149014,0.945885 -0.324856,2.036024 -0.390816,2.422527 -0.24691,1.44706 -0.623147,5.761498 -0.792401,9.086848 -0.09631,1.891771 -0.218017,3.796771 -0.270483,4.233333 -0.05247,0.436563 -0.09925,26.08821 -0.103955,57.003664 -0.0056,35.724058 -0.108347,57.757878 -0.282364,60.457288 -0.736309,11.42184 -3.511364,22.44992 -7.959725,31.63176 -1.197398,2.47155 -4.087839,7.26104 -5.34535,8.85729 -0.117343,0.14896 -0.872622,1.1638 -1.678411,2.25521 -4.181475,5.66372 -11.890825,13.22514 -17.432232,17.09774 -2.271363,1.58734 -5.991928,4.06892 -6.100423,4.06892 -0.06807,0 -1.219904,0.66778 -2.559624,1.48397 -1.33972,0.81619 -3.4495,1.99189 -4.6884,2.61265 -2.87049,1.43831 -10.66155,4.89922 -11.02893,4.89922 -0.15343,0 -1.15855,0.36933 -2.23359,0.82073 -2.30026,0.96589 -8.97658,3.25589 -11.14038,3.82119 -0.83206,0.21739 -1.69174,0.46387 -1.91038,0.54777 -0.28859,0.11076 -0.58543,-0.27128 -1.08319,-1.39409 -0.77425,-1.74651 -1.81619,-4.84195 -1.67325,-4.97102 0.0518,-0.0468 0.68956,-0.35123 1.41717,-0.67654 2.49683,-1.11627 5.61378,-3.64852 7.69726,-6.25337 2.68767,-3.36021 5.69204,-10.28851 6.75385,-15.57488 1.06418,-5.2982 1.11144,-6.62565 1.21686,-34.18263 l 0.10242,-26.7743 -1.00603,-0.26334 c -4.44384,-1.16327 -9.47932,-1.70399 -14.39938,-1.54624 -9.03194,0.28958 -15.08252,2.27029 -20.54807,6.72656 -1.63099,1.32982 -3.74977,4.09105 -5.18817,6.7613 -0.68589,1.27331 -1.38967,2.31465 -1.56395,2.3141 -0.72153,-0.002 -5.01757,-0.77496 -5.17419,-0.9306 -0.29658,-0.29474 -0.49847,-5.36438 -0.44232,-11.10694 0.048,-4.90448 0.15182,-6.10786 0.88539,-10.25871 1.25105,-7.07905 1.8181,-8.92391 4.43316,-14.42311 3.20896,-6.74809 8.97681,-13.2064 15.09958,-16.90713 7.74161,-4.67917 15.05246,-6.78998 24.5164,-7.07845 1.5718,-0.0479 2.90741,-0.13671 2.96802,-0.19732 0.0606,-0.06061 0.17448,-4.092723 0.25302,-8.960241 0.28093,-17.408784 0.63352,-21.672301 2.39484,-28.958368 1.52353,-6.302369 2.89427,-10.09033 5.98398,-16.536458 2.27295,-4.742082 4.27152,-7.970755 7.76072,-12.53739 0.87676,-1.14749 1.82855,-2.397646 2.115098,-2.778125 2.419189,-3.21224 9.350881,-10.254686 15.112659,-15.354112 4.617455,-4.086653 8.727996,-7.5077924 9.373632,-7.8015328 0.28874,-0.1313789 0.525012,-0.3273266 0.525012,-0.4354407 0,-0.108114 0.595313,-0.5785802 1.322917,-1.0454825 0.727604,-0.4669023 1.322917,-0.929894 1.322917,-1.0288693 0,-0.098975 0.346234,-0.3844819 0.769408,-0.6344603 0.423175,-0.2499783 1.286378,-0.8690001 1.918229,-1.3756057 1.592025,-1.2764638 1.901878,-1.5105592 4.475957,-3.38165813 2.111586,-1.53491137 3.966765,-2.84085237 10.515361,-7.40226107 1.408933,-0.981374 2.680732,-1.8792935 2.826253,-1.9953815 0.448098,-0.357468 3.189552,-2.209747 6.349524,-4.290097 1.657826,-1.091406 4.300643,-2.867007 5.872956,-3.945782 4.080192,-2.799421 4.051908,-2.780382 5.474123,-3.685505 0.71083,-0.452393 1.395439,-0.758862 1.521354,-0.681048 0.127741,0.07895 0.228918,26.5041454 0.228918,59.789408 V 96.641666 H -4.7525306 22.63531 L 22.59226,59.401562 C 22.54553,18.988866 22.454015,14.604371 21.58851,11.313542 21.08551,9.400964 18.772735,4.3020833 18.408245,4.3020833 c -0.08173,0 -0.301255,-0.3449293 -0.487866,-0.7665084 C 17.39402,2.3464659 14.618488,-0.25257054 12.999556,-1.0723026 10.936282,-2.117039 10.122741,-1.9135162 7.942601,0.19279465 7.0031714,1.1003922 6.2024893,1.8118621 6.1632516,1.7738414 6.1240404,1.7358182 5.7942902,2.1072482 5.4304881,2.5992383 5.066686,3.0912283 4.6813468,3.4970436 4.5741641,3.5010494 4.4669814,3.5050446 3.978296,3.9458907 3.4881818,4.4806797 L 2.5970916,5.4530288 1.9632823,4.7214823 C 1.6146673,4.3191305 0.46952414,3.0779013 -0.58150669,1.9631958 -1.6325111,0.84849035 -2.4957142,-0.19867756 -2.4997358,-0.36384106 c -0.00397,-0.1651635 0.3201458,-0.51282864 0.7203281,-0.77258334 0.4001823,-0.2597573 1.68452267,-1.4343089 2.8541133,-2.6101172 1.8104908,-1.8201508 9.6721084,-9.3843234 13.2535614,-12.7521144 0.600895,-0.565063 2.612628,-2.456135 4.470479,-4.202385 1.857878,-1.74625 4.001082,-3.770313 4.762712,-4.497917 0.761629,-0.727604 2.440834,-2.29529 3.731577,-3.483748 1.29077,-1.188458 3.367008,-3.152989 4.61391,-4.365625 1.246902,-1.212635 3.33592,-3.216825 4.642247,-4.453752 1.306327,-1.236927 4.572397,-4.344583 7.257918,-6.9059 5.744712,-5.479034 6.867128,-6.475537 6.867128,-6.096757 0,0.154731 0.492998,0.732613 1.09556,1.284179 0.602536,0.551569 2.537301,2.477992 4.299479,4.28094 25.675405,26.269688 26.850631,27.393156 30.853327,29.493916 5.633773,2.956827 9.997758,2.222754 15.601266,-2.624315 0.51411,-0.444709 1.50132,-1.263575 2.19382,-1.819703 l 1.25909,-1.011145 0.61963,0.629081 c 1.53027,1.553623 4.11988,4.99749 3.99328,5.310534 -0.0769,0.190095 -0.56494,0.643284 -1.08453,1.007086 -0.51959,0.363803 -1.27907,0.959115 -1.68775,1.322917 -0.40867,0.363802 -1.00028,0.840052 -1.31471,1.058333 -0.68887,0.478235 -1.69601,1.279975 -3.82593,3.0457012 -0.87969,0.7292499 -2.43284,1.974977 -3.451491,2.7682798 -2.237211,1.742313 -3.11314,2.5096894 -5.519499,4.83549855 -1.016265,0.98226562 -1.946302,1.78593749 -2.06674,1.78593749 -0.120438,0 -0.221059,0.0892969 -0.223599,0.19843746 -0.0026,0.1091407 -0.602404,0.8532813 -1.333024,1.6536459 -2.183686,2.3921534 -2.259542,2.4823975 -2.779765,3.3072916 -0.275299,0.4365625 -0.585206,0.8557286 -0.688658,0.9314788 -0.273235,0.2000885 -3.131423,5.9868512 -3.131423,6.3399692 0,0.164016 -0.232278,0.808115 -0.516202,1.431333 -0.283898,0.623218 -0.596477,1.479888 -0.694584,1.903714 -0.260959,1.127231 -1.09855,6.502625 -1.420866,9.118695 -0.191188,1.551829 -0.277151,35.840096 -0.273605,109.140625 0.0056,115.01152 -0.05839,109.50162 1.329584,114.5409 1.144164,4.15404 3.710569,8.62579 6.527191,11.37309 2.727352,2.66025 9.177232,6.48621 10.084885,5.98218 0.24294,-0.13492 1.759876,-1.47342 3.370976,-2.97448 2.84938,-2.65475 5.95641,-5.42009 7.16275,-6.37508 0.59465,-0.47075 0.59555,-0.46998 2.70833,2.36162 1.78329,2.39001 2.06454,2.90224 1.80033,3.27872 -0.29438,0.41936 -3.10118,3.07514 -6.67377,6.31459 -1.52093,1.37912 -8.129988,7.62805 -10.663559,10.08248 -0.677651,0.65649 -2.42271,2.25838 -3.877918,3.55973 -3.13362,2.80236 -2.583498,2.291 -5.987442,5.56543 -1.512755,1.45521 -3.743589,3.53881 -4.957365,4.63021 -1.213776,1.09141 -3.017018,2.75828 -4.007194,3.70417 -0.990177,0.94588 -3.02985,2.85088 -4.53263,4.23333 -1.502754,1.38245 -3.513376,3.28745 -4.468072,4.23333 -2.862315,2.83597 -5.043778,4.7625 -5.392685,4.7625 -0.275669,0 -4.25905,-2.42091 -6.474512,-3.93488 -0.346657,-0.23691 -0.824786,-0.5498 -1.062461,-0.69532 -0.237702,-0.14552 -0.858282,-0.59201 -1.379061,-0.99219 -0.52078,-0.40018 -1.084448,-0.72761 -1.252617,-0.72761 -0.16817,0 -0.305753,-0.11906 -0.305753,-0.26458 0,-0.14552 -0.124063,-0.26458 -0.275696,-0.26458 -0.289401,0 -1.001977,-0.50083 -5.175488,-3.63763 -3.428285,-2.57669 -4.91789,-3.88138 -8.543396,-7.48278 -4.069159,-4.04212 -8.056668,-9.24021 -9.577202,-12.48476 -0.292126,-0.62336 -0.79666,-1.60962 -1.121172,-2.19171 -1.045024,-1.87446 -2.232977,-5.19189 -3.352085,-9.3609 -2.106057,-7.84574 -1.985169,-3.72721 -1.985169,-67.63285 0,-37.61763 -0.08961,-56.95125 -0.264583,-57.0798 -0.145521,-0.10691 -12.4387242,-0.19621 -27.3182294,-0.19844 -21.4680796,-0.003 -27.0538836,0.0642 -27.0548096,0.32668 0,0.1819 -0.0042,26.58401 -0.0077,58.67136 l -0.0066,58.34062 0.73541,0.58579 c 3.130735,2.49377 5.533839,4.30159 5.722514,4.30498 0.123507,0.003 2.513541,-2.25817 5.311166,-5.02306 2.797625,-2.7649 5.196867,-5.02923 5.331672,-5.03185 0.363749,-0.007 5.1398486,5.07532 5.1398486,5.46947 0,0.35089 -0.6984206,1.18478 -3.1749996,3.79079 -0.800365,0.84222 -3.014927,3.18214 -4.92125,5.19988 -1.906323,2.01772 -4.466167,4.7271 -5.688542,6.02086 -1.222375,1.29376 -3.055938,3.20995 -4.074583,4.25821 -1.018646,1.04825 -2.864115,3.01638 -4.101042,4.37364 -1.236927,1.35723 -2.78474,3.02672 -3.439583,3.70998 -0.654844,0.68329 -1.891348,2.0024 -2.747804,2.9314 -0.856456,0.92898 -3.245009,3.47501 -5.307912,5.65783 -3.06959,3.24802 -11.415157,12.15943 -12.728654,13.59167 -0.27821,0.30334 -0.51996,0.22701 -1.481852,-0.46797 -5.053595,-3.6513 -9.571408,-6.62763 -11.645953,-7.67233 -0.825421,-0.41566 -1.86436,-1.01468 -2.308781,-1.33112 -1.87534,-1.33538 -14.073161,-6.89838 -15.125832,-6.89838 -0.164597,0 -0.674449,-0.17433 -1.133025,-0.3874 -1.38766,-0.64476 -7.054474,-2.45369 -9.168104,-2.92656 -1.091406,-0.24418 -2.520156,-0.6019 -3.174995,-0.79489 -2.11906,-0.62457 -8.21608,-1.72397 -13.09688,-2.36156 -4.16082,-0.54356 -5.69843,-0.61479 -12.17083,-0.56388 -9.80256,0.0771 -15.32292,0.85865 -22.35729,3.1651 -8.27638,2.7137 -13.76637,5.91363 -18.63272,10.86041 -7.144,7.26207 -10.04539,16.19964 -8.47184,26.09712 0.74391,4.67916 2.31894,8.53866 5.20289,12.74937 3.13041,4.5705 7.08745,7.78759 12.37667,10.06221 6.23702,2.68227 9.63108,3.35381 16.40416,3.24573 6.287,-0.10031 10.02574,-0.88178 15.61042,-3.26287 2.27794,-0.97123 7.59252,-4.23418 9.22564,-5.66417 l 0.89125,-0.78045 0.79459,0.74708 c 1.72429,1.62116 3.885,4.32827 3.74527,4.69239 -0.1392,0.36274 -2.3317,2.06507 -4.90054,3.80494 -1.77482,1.20208 -6.96253,3.87702 -8.96246,4.62132 -2.12716,0.79164 -7.31741,2.14776 -10.31875,2.69608 -2.10294,0.38417 -10.04313,0.52885 -12.30312,0.22415 z M -165.88406,40.778743 c -4.60114,-0.347539 -8.05463,-1.178457 -11.45362,-2.755784 -0.76796,-0.356378 -1.4542,-0.647959 -1.52497,-0.647959 -0.0708,0 -1.45973,-0.799283 -3.08659,-1.776183 -4.12353,-2.476105 -8.88974,-7.226882 -11.45465,-11.417569 -0.14552,-0.23776 -0.33074,-0.491821 -0.41161,-0.564581 -0.1921,-0.172847 -1.18682,-2.344833 -1.42378,-3.108855 -0.10155,-0.327421 -0.29568,-0.595312 -0.43139,-0.595312 -0.13572,0 -0.24676,-0.185126 -0.24676,-0.41139 0,-0.226267 -0.24073,-0.939842 -0.53497,-1.585725 -1.51756,-3.33126 -2.57863,-9.4732948 -2.58031,-14.9362183 -0.003,-9.1914027 2.87751,-19.7751517 7.25596,-26.6619087 0.48753,-0.76681 0.88641,-1.456444 0.88641,-1.53252 0,-0.07608 0.11808,-0.282125 0.2624,-0.457885 0.14433,-0.175757 0.99101,-1.331592 1.88152,-2.568519 0.89051,-1.236927 1.75469,-2.368021 1.9204,-2.513542 0.16572,-0.145521 0.75509,-0.829323 1.30973,-1.519558 0.87437,-1.088141 3.12968,-3.200672 6.6041,-6.186029 3.92904,-3.375973 13.28046,-8.312867 18.76567,-9.906956 1.49928,-0.435713 3.32128,-0.968158 4.04888,-1.183206 1.38363,-0.408942 4.79343,-1.089493 7.27605,-1.452202 1.92799,-0.281678 12.47427,-0.278829 14.1552,0.0038 0.72761,0.122349 2.45401,0.406091 3.83646,0.630539 1.38245,0.224449 2.98979,0.536181 3.57188,0.692743 0.58208,0.156559 1.35599,0.342818 1.71979,0.413904 0.3638,0.07109 1.01864,0.200085 1.45521,0.286668 0.43656,0.08658 0.91281,0.24988 1.05833,0.362892 0.14552,0.113011 1.09802,0.393459 2.11667,0.623212 3.09569,0.698236 4.36562,1.072624 4.36562,1.287032 0,0.112434 0.20879,0.204427 0.46398,0.204427 0.25519,0 1.61518,0.406099 3.02221,0.902444 1.40703,0.496342 2.62699,0.833686 2.71102,0.749652 0.084,-0.08404 0.15279,-0.03571 0.15279,0.107399 0,0.143106 0.89501,0.534803 1.9889,0.87044 1.0939,0.335637 2.05343,0.714645 2.13229,0.84224 0.0789,0.127595 0.41019,0.231992 0.7363,0.231992 0.32611,0 0.70604,0.100822 0.84428,0.224049 0.28652,0.255397 3.95448,1.692341 5.543024,2.17151 0.582083,0.17558 1.179671,0.414546 1.327975,0.531037 0.148302,0.116491 1.100802,0.416015 2.116667,0.665607 1.015862,0.249592 1.972913,0.551024 2.126776,0.669848 0.464175,0.358468 7.495056,2.103112 11.229623,2.786523 2.922006,0.534715 12.585224,0.355126 14.774281,-0.274579 3.997272,-1.149845 7.899743,-2.909404 10.002228,-4.509842 2.304601,-1.754275 6.719147,-6.251474 7.581953,-7.723904 0.279136,-0.476351 0.509826,-0.455517 1.128766,0.101938 0.282733,0.254662 1.376759,1.111441 2.43115,1.903953 1.054365,0.792514 1.917039,1.519729 1.917039,1.616035 0,0.241774 -1.792685,3.748185 -2.117514,4.141761 -0.145044,0.17576 -0.263736,0.419433 -0.263736,0.541499 0,0.122065 -0.185076,0.454512 -0.411295,0.738772 -0.226192,0.284258 -0.882729,1.350272 -1.458966,2.368918 -1.266031,2.238041 -1.219649,2.162474 -3.652943,5.953125 -1.711907,2.666883 -3.575658,5.316958 -4.398671,6.254535 -0.145521,0.165778 -0.502709,0.633074 -0.79375,1.03844 -0.291042,0.405365 -0.711571,0.924573 -0.934509,1.153797 -0.222938,0.229222 -0.87585,1.012082 -1.450895,1.739686 -1.203246,1.522455 -8.220922,8.545147 -9.914784,9.921875 -0.626666,0.509323 -1.330167,1.079627 -1.563344,1.267341 -1.582102,1.2736142 -4.533503,3.3551521 -5.252614,3.704545 -0.472943,0.2297826 -0.859896,0.5147997 -0.859896,0.6333675 0,0.1185704 -0.12737,0.2155798 -0.283051,0.2155798 -0.155681,0 -0.791607,0.3498824 -1.41314,0.7775178 -0.621559,0.4276328 -1.952704,1.1490272 -2.958094,1.6030946 -1.005417,0.4540673 -2.522882,1.1757474 -3.372168,1.60373214 -0.849312,0.42798471 -1.745535,0.77815546 -1.991651,0.77815546 -0.246115,0 -0.682334,0.16256793 -0.96938,0.36125943 -0.287047,0.19869414 -1.343131,0.56584585 -2.346881,0.81589297 -1.003723,0.2500471 -2.015762,0.56583 -2.24895,0.7017411 -0.233188,0.1359112 -1.55507,0.4231005 -2.937518,0.6382015 -1.382448,0.2150983 -2.811198,0.4558797 -3.175,0.5350695 -2.270342,0.4941861 -16.245682,0.6801168 -16.980602,0.2259145 -0.16998,-0.1050555 -0.61584,-0.2171806 -0.99079,-0.2491661 -2.68039,-0.2286502 -10.68384,-2.11221633 -12.85257,-3.02478011 -0.29104,-0.12246504 -2.78526,-0.95247089 -5.54271,-1.84445539 -2.75745,-0.8919871 -5.1387,-1.7193763 -5.29167,-1.8386451 -0.3394,-0.264631 -6.53147,-2.2778138 -7.81874,-2.5420505 -0.50932,-0.1045475 -1.04511,-0.2842075 -1.19063,-0.3992457 -0.14552,-0.1150382 -0.62177,-0.2660147 -1.05833,-0.3355022 -0.43656,-0.06949 -1.32953,-0.272595 -1.98437,-0.4513448 -5.40219,-1.4746261 -15.54461,-1.2932913 -19.69489,0.3521181 -4.46991,1.7721394 -7.83001,4.1888965 -10.33532,7.43371208 -2.33144,3.01961812 -3.78513,7.46262052 -3.82069,11.67737442 -0.0532,6.302473 2.72041,12.18252 7.6914,16.305956 2.47084,2.049563 4.28102,3.067304 7.15679,4.023781 4.89876,1.629315 10.55704,2.118251 15.49983,1.339352 5.24775,-0.826957 9.16801,-2.345361 13.55101,-5.2486 0.79704,-0.527955 1.59392,-0.959916 1.77082,-0.959916 0.17691,0 0.98996,0.863203 1.80678,1.918229 0.81682,1.055026 1.65706,2.127948 1.86719,2.384274 0.21014,0.256326 0.38208,0.504955 0.38208,0.552511 0,0.04755 -0.93851,0.813935 -2.08556,1.703065 -2.90908,2.25494 -8.02798,4.881996 -11.1581,5.726408 -4.3705,1.179034 -10.04487,1.60246 -15.72506,1.173422 z"
       id="path101"
       sodipodi:nodetypes="sssssscssssssssssscsssssssscsssssssssssssscsssssssssssssssssscsssscssssssssssssssssssssssssssscccsssssssssscsssssssssssssscssscsssssssssssssssssssssssssssssssssssssssssssssssccccscssssssssssssssssssssssssssssscssssssssssssssssscssssssssssssssssssssssssssssssssssssssssssssssssssssssssssssssssssssssssssssssssssss" /></g></svg>
